<svg xmlns="http://www.w3.org/2000/svg" xmlns:xlink="http://www.w3.org/1999/xlink" width="500" zoomAndPan="magnify" viewBox="0 0 375 374.999991" height="500" preserveAspectRatio="xMidYMid meet" version="1.0"><defs><g/></defs><rect x="-37.5" width="450" fill="#ffffff" y="-37.499999" height="449.999989" fill-opacity="1"/><rect x="-37.5" width="450" fill="#003366" y="-37.499999" height="449.999989" fill-opacity="1"/><g fill="#f9f9f9" fill-opacity="1"><g transform="translate(81.07166, 204.749987)"><g><path d="M 52.109375 -12.625 C 52.566406 -12.625 52.90625 -12.484375 53.125 -12.203125 C 53.351562 -11.921875 53.46875 -11.582031 53.46875 -11.1875 L 53.46875 -1.4375 C 53.46875 -0.476562 53.015625 0 52.109375 0 L 45.15625 0 C 46.289062 0.90625 46.941406 1.851562 47.109375 2.84375 C 47.273438 3.832031 47.191406 4.890625 46.859375 6.015625 C 45.441406 10.703125 43.445312 14.375 40.875 17.03125 C 38.3125 19.6875 35.363281 21.550781 32.03125 22.625 C 28.695312 23.695312 25.164062 24.234375 21.4375 24.234375 C 18.726562 24.234375 16.128906 23.765625 13.640625 22.828125 C 11.148438 21.898438 8.972656 20.53125 7.109375 18.71875 C 5.253906 16.914062 3.875 14.703125 2.96875 12.078125 C 2.0625 9.453125 1.863281 6.441406 2.375 3.046875 C 2.9375 -0.796875 4.160156 -4.253906 6.046875 -7.328125 C 7.941406 -10.410156 10.019531 -12.828125 12.28125 -14.578125 L 15.671875 -12.375 C 13.867188 -10.28125 12.613281 -8.285156 11.90625 -6.390625 C 11.195312 -4.503906 10.703125 -2.6875 10.421875 -0.9375 C 10.078125 1.039062 10.300781 2.960938 11.09375 4.828125 C 11.882812 6.691406 13.195312 8.21875 15.03125 9.40625 C 16.875 10.59375 19.148438 11.1875 21.859375 11.1875 C 24.285156 11.1875 26.671875 10.945312 29.015625 10.46875 C 31.359375 9.988281 33.488281 9.179688 35.40625 8.046875 C 37.332031 6.921875 38.863281 5.367188 40 3.390625 C 37.90625 2.828125 35.828125 2.257812 33.765625 1.6875 C 31.703125 1.125 29.625 0.5625 27.53125 0 L 34.40625 -13.140625 C 35.59375 -13.023438 37.046875 -12.921875 38.765625 -12.828125 C 40.484375 -12.742188 42.234375 -12.6875 44.015625 -12.65625 C 45.796875 -12.632812 47.40625 -12.625 48.84375 -12.625 C 50.289062 -12.625 51.378906 -12.625 52.109375 -12.625 Z M 8.140625 36.015625 L 14.40625 28.5625 C 16.15625 28.5625 17.804688 28.546875 19.359375 28.515625 C 20.910156 28.484375 22.585938 28.46875 24.390625 28.46875 C 26.203125 28.46875 28.410156 28.46875 31.015625 28.46875 L 23.984375 36.015625 Z M 8.140625 36.015625 "/></g></g></g><g fill="#f9f9f9" fill-opacity="1"><g transform="translate(133.178461, 204.749987)"><g><path d="M 21.09375 -26.265625 C 24.3125 -25.304688 26.613281 -23.863281 28 -21.9375 C 29.382812 -20.019531 29.539062 -17.476562 28.46875 -14.3125 C 27.394531 -11.09375 26.109375 -8.523438 24.609375 -6.609375 C 23.117188 -4.691406 21.285156 -3.25 19.109375 -2.28125 C 16.929688 -1.320312 14.289062 -0.703125 11.1875 -0.421875 C 8.082031 -0.140625 4.378906 0 0.078125 0 C -0.878906 0 -1.359375 -0.476562 -1.359375 -1.4375 L -1.359375 -11.1875 C -1.359375 -11.582031 -1.226562 -11.921875 -0.96875 -12.203125 C -0.71875 -12.484375 -0.367188 -12.625 0.078125 -12.625 L 3.984375 -12.625 C 3.867188 -13.976562 3.878906 -15.332031 4.015625 -16.6875 C 4.160156 -18.039062 4.347656 -19.144531 4.578125 -20 C 5.484375 -22.65625 6.539062 -24.617188 7.75 -25.890625 C 8.96875 -27.160156 10.632812 -27.804688 12.75 -27.828125 C 14.875 -27.859375 17.65625 -27.335938 21.09375 -26.265625 Z M 9.578125 -12.796875 C 12.285156 -13.078125 14.472656 -13.457031 16.140625 -13.9375 C 17.804688 -14.414062 19.257812 -14.9375 20.5 -15.5 C 17.0625 -16.75 14.476562 -17.242188 12.75 -16.984375 C 11.03125 -16.734375 10 -15.675781 9.65625 -13.8125 C 9.601562 -13.644531 9.578125 -13.304688 9.578125 -12.796875 Z M 9.578125 -12.796875 "/></g></g></g><g fill="#f9f9f9" fill-opacity="1"><g transform="translate(164.866177, 204.749987)"><g><path d="M 44.40625 -12.625 C 45.132812 -12.625 45.5 -12.171875 45.5 -11.265625 L 45.5 -1.4375 C 45.5 -0.476562 45.132812 0 44.40625 0 L 34.140625 0 L 32.703125 -1.09375 L 30.921875 -17.375 C 29.398438 -13.53125 27.328125 -10.097656 24.703125 -7.078125 C 22.078125 -4.054688 18.867188 -1.8125 15.078125 -0.34375 C 11.296875 1.125 6.890625 1.460938 1.859375 0.671875 L 0.84375 -4.828125 C 2.476562 -5.671875 4.054688 -6.515625 5.578125 -7.359375 C 7.109375 -8.210938 8.550781 -9.035156 9.90625 -9.828125 L 5.671875 -34.828125 L 14.75 -42.375 L 16.265625 -14.0625 C 18.472656 -15.695312 20.394531 -17.375 22.03125 -19.09375 C 23.664062 -20.820312 24.960938 -22.617188 25.921875 -24.484375 C 26.828125 -26.179688 27.4375 -27.875 27.75 -29.5625 C 28.0625 -31.257812 28.128906 -33.40625 27.953125 -36 C 27.785156 -38.601562 27.394531 -42.050781 26.78125 -46.34375 L 36.1875 -53.546875 L 39.734375 -12.625 Z M 44.40625 -12.625 "/></g></g></g><g fill="#f9f9f9" fill-opacity="1"><g transform="translate(209.262864, 204.749987)"><g><path d="M 58.640625 -22.375 L 61.4375 -20.921875 C 61.09375 -17.140625 60.441406 -14.132812 59.484375 -11.90625 C 58.523438 -9.675781 57.140625 -7.515625 55.328125 -5.421875 C 53.640625 -3.503906 51.578125 -2.117188 49.140625 -1.265625 C 46.710938 -0.421875 43.890625 0 40.671875 0 C 40.441406 0 39.707031 -0.0390625 38.46875 -0.125 C 37.226562 -0.207031 35.828125 -0.347656 34.265625 -0.546875 C 32.710938 -0.742188 31.347656 -0.984375 30.171875 -1.265625 C 27.566406 -0.304688 25.191406 0.171875 23.046875 0.171875 C 20.109375 0.171875 17.691406 0.03125 15.796875 -0.25 C 13.910156 -0.53125 12.003906 -0.925781 10.078125 -1.4375 C 8.835938 -0.875 7.425781 -0.492188 5.84375 -0.296875 C 4.257812 -0.0976562 2.3125 0 0 0 C -0.90625 0 -1.359375 -0.476562 -1.359375 -1.4375 L -1.359375 -11.265625 C -1.359375 -12.171875 -0.90625 -12.625 0 -12.625 C 1.863281 -12.625 3.882812 -12.765625 6.0625 -13.046875 C 8.238281 -13.328125 10.453125 -14.128906 12.703125 -15.453125 C 14.960938 -16.785156 17.140625 -19.003906 19.234375 -22.109375 L 21.953125 -20.5 C 21.660156 -18.8125 21.375 -17.34375 21.09375 -16.09375 C 20.8125 -14.851562 20.472656 -13.695312 20.078125 -12.625 L 21.953125 -12.625 C 24.492188 -12.625 26.78125 -12.765625 28.8125 -13.046875 C 30.84375 -13.328125 32.789062 -14.128906 34.65625 -15.453125 C 36.519531 -16.785156 38.5 -19.003906 40.59375 -22.109375 L 43.296875 -20.5 C 43.015625 -18.925781 42.71875 -17.488281 42.40625 -16.1875 C 42.09375 -14.882812 41.710938 -13.695312 41.265625 -12.625 C 43.523438 -12.625 45.445312 -12.691406 47.03125 -12.828125 C 48.613281 -12.972656 50.023438 -13.34375 51.265625 -13.9375 C 52.503906 -14.53125 53.703125 -15.488281 54.859375 -16.8125 C 56.023438 -18.144531 57.285156 -20 58.640625 -22.375 Z M 58.640625 -22.375 "/></g></g></g><g fill="#f9f9f9" fill-opacity="1"><g transform="translate(274.502274, 204.749987)"><g><path d="M 7.125 0.515625 L 3.46875 -44.734375 L 13.046875 -52.28125 L 14.3125 -6.78125 Z M 5 20.078125 L 4.328125 14.0625 C 4.773438 14.007812 5.378906 13.894531 6.140625 13.71875 C 6.898438 13.550781 7.601562 13.367188 8.25 13.171875 C 8.90625 12.972656 9.234375 12.875 9.234375 12.875 L 9.234375 12.546875 C 8.046875 12.429688 6.972656 11.847656 6.015625 10.796875 C 5.054688 9.753906 4.578125 8.613281 4.578125 7.375 C 4.578125 6.300781 4.972656 5.253906 5.765625 4.234375 C 6.554688 3.222656 7.539062 2.347656 8.71875 1.609375 C 9.90625 0.878906 11.066406 0.398438 12.203125 0.171875 L 14.90625 5.078125 C 12.476562 5.648438 11.066406 6.640625 10.671875 8.046875 C 11.128906 8.835938 11.695312 9.390625 12.375 9.703125 C 13.050781 10.015625 13.644531 10.171875 14.15625 10.171875 C 14.882812 10.171875 15.742188 10.039062 16.734375 9.78125 C 17.722656 9.53125 18.5 9.207031 19.0625 8.8125 L 20 15.34375 C 19.207031 15.675781 17.878906 16.164062 16.015625 16.8125 C 14.148438 17.46875 12.203125 18.101562 10.171875 18.71875 C 8.140625 19.34375 6.414062 19.796875 5 20.078125 Z M 5 20.078125 "/></g></g></g><g fill="#f9f9f9" fill-opacity="1"><g transform="translate(146.677495, 235.076322)"><g><path d="M 9.75 -9.171875 L 9.75 -0.921875 L 10.53125 -0.921875 L 10.53125 0 L 9.625 0 L 9.625 -0.421875 C 9.457031 -0.148438 9.203125 -0.00390625 8.859375 0.015625 L 3.671875 0.125 C 2.734375 0.125 1.992188 -0.132812 1.453125 -0.65625 C 0.910156 -1.175781 0.644531 -1.972656 0.65625 -3.046875 L 0.65625 -5.46875 L 1.734375 -5.46875 L 1.734375 -3.046875 C 1.722656 -2.316406 1.914062 -1.75 2.3125 -1.34375 C 2.707031 -0.9375 3.210938 -0.753906 3.828125 -0.796875 L 8.65625 -0.921875 L 8.65625 -9.171875 Z M 6.015625 -4.3125 L 6.21875 -4.3125 L 6.21875 -3.671875 L 3.9375 -3.671875 L 3.9375 -4.3125 L 4.625 -4.3125 C 4.351562 -4.425781 4.21875 -4.617188 4.21875 -4.890625 L 4.21875 -5.109375 C 4.21875 -5.328125 4.28125 -5.503906 4.40625 -5.640625 C 4.539062 -5.773438 4.703125 -5.875 4.890625 -5.9375 C 5.085938 -6 5.285156 -6.019531 5.484375 -6 C 5.691406 -5.976562 5.863281 -5.914062 6 -5.8125 L 6 -5.21875 C 5.707031 -5.382812 5.46875 -5.429688 5.28125 -5.359375 C 5.101562 -5.296875 5.015625 -5.195312 5.015625 -5.0625 L 5.015625 -4.921875 C 5.015625 -4.710938 5.070312 -4.554688 5.1875 -4.453125 C 5.3125 -4.359375 5.585938 -4.3125 6.015625 -4.3125 Z M 6.015625 -4.3125 "/></g></g></g><g fill="#f9f9f9" fill-opacity="1"><g transform="translate(157.074315, 235.076322)"><g><path d="M 1.953125 -6.484375 C 1.753906 -6.484375 1.59375 -6.546875 1.46875 -6.671875 C 1.34375 -6.804688 1.28125 -6.96875 1.28125 -7.15625 C 1.28125 -7.351562 1.34375 -7.515625 1.46875 -7.640625 C 1.59375 -7.773438 1.753906 -7.84375 1.953125 -7.84375 C 2.140625 -7.84375 2.296875 -7.773438 2.421875 -7.640625 C 2.554688 -7.515625 2.625 -7.351562 2.625 -7.15625 C 2.625 -6.96875 2.554688 -6.804688 2.421875 -6.671875 C 2.296875 -6.546875 2.140625 -6.484375 1.953125 -6.484375 Z M 3.671875 -6.484375 C 3.484375 -6.484375 3.320312 -6.546875 3.1875 -6.671875 C 3.0625 -6.804688 3 -6.96875 3 -7.15625 C 3 -7.351562 3.0625 -7.515625 3.1875 -7.640625 C 3.320312 -7.773438 3.484375 -7.84375 3.671875 -7.84375 C 3.867188 -7.84375 4.03125 -7.773438 4.15625 -7.640625 C 4.289062 -7.515625 4.359375 -7.351562 4.359375 -7.15625 C 4.359375 -6.96875 4.289062 -6.804688 4.15625 -6.671875 C 4.03125 -6.546875 3.867188 -6.484375 3.671875 -6.484375 Z M 3.375 -5.609375 L 3.390625 -0.9375 L 3.390625 -0.921875 L 4.171875 -0.921875 L 4.171875 0 L 3.265625 0 L 3.265625 -0.4375 C 3.097656 -0.144531 2.828125 0 2.453125 0 L -0.125 0 L -0.125 -0.921875 L 2.3125 -0.921875 L 2.296875 -5.609375 Z M 3.375 -5.609375 "/></g></g></g><g fill="#f9f9f9" fill-opacity="1"><g transform="translate(161.116082, 235.076322)"><g><path d="M 3.375 -5.609375 L 3.390625 -0.9375 C 3.390625 -0.664062 3.300781 -0.441406 3.125 -0.265625 C 2.945312 -0.0859375 2.722656 0 2.453125 0 L -0.125 0 L -0.125 -0.921875 L 2.3125 -0.921875 L 2.296875 -5.609375 Z M 1.5625 1.6875 C 1.5625 1.875 1.492188 2.03125 1.359375 2.15625 C 1.234375 2.289062 1.078125 2.359375 0.890625 2.359375 C 0.691406 2.359375 0.523438 2.289062 0.390625 2.15625 C 0.265625 2.03125 0.203125 1.875 0.203125 1.6875 C 0.203125 1.5 0.265625 1.335938 0.390625 1.203125 C 0.523438 1.078125 0.691406 1.015625 0.890625 1.015625 C 1.078125 1.015625 1.234375 1.078125 1.359375 1.203125 C 1.492188 1.335938 1.5625 1.5 1.5625 1.6875 Z M 3.28125 1.6875 C 3.28125 1.875 3.21875 2.03125 3.09375 2.15625 C 2.96875 2.289062 2.804688 2.359375 2.609375 2.359375 C 2.421875 2.359375 2.257812 2.289062 2.125 2.15625 C 2 2.03125 1.9375 1.875 1.9375 1.6875 C 1.9375 1.5 2 1.335938 2.125 1.203125 C 2.257812 1.078125 2.421875 1.015625 2.609375 1.015625 C 2.804688 1.015625 2.96875 1.078125 3.09375 1.203125 C 3.21875 1.335938 3.28125 1.5 3.28125 1.6875 Z M 3.28125 1.6875 "/></g></g></g><g fill="#f9f9f9" fill-opacity="1"><g transform="translate(165.157849, 235.076322)"><g><path d="M 1.78125 0 L 0.65625 0 L 0.65625 -9.171875 L 1.78125 -9.171875 Z M 1.78125 0 "/></g></g></g><g fill="#f9f9f9" fill-opacity="1"><g transform="translate(167.588104, 235.076322)"><g><path d="M 6.203125 -2.4375 L 6.203125 -0.921875 L 6.984375 -0.921875 L 6.984375 0 L 6.078125 0 L 6.078125 -0.421875 C 5.898438 -0.140625 5.632812 0 5.28125 0 L 0.65625 0 L 0.65625 -0.921875 L 5.125 -0.921875 L 5.125 -2.4375 C 5.125 -3.300781 4.800781 -3.910156 4.15625 -4.265625 C 3.519531 -4.628906 2.65625 -4.722656 1.5625 -4.546875 L 1.5625 -5.484375 C 2.476562 -5.679688 3.28125 -5.6875 3.96875 -5.5 C 4.664062 -5.3125 5.210938 -4.957031 5.609375 -4.4375 C 6.003906 -3.914062 6.203125 -3.25 6.203125 -2.4375 Z M 6.203125 -2.4375 "/></g></g></g><g fill="#f9f9f9" fill-opacity="1"><g transform="translate(174.437004, 235.076322)"><g><path d="M 9.28125 -2.4375 L 9.28125 -0.921875 L 10.0625 -0.921875 L 10.0625 0 L 9.15625 0 L 9.15625 -0.421875 C 8.976562 -0.140625 8.710938 0 8.359375 0 L 5.859375 0 L 5.328125 0.515625 C 5.015625 0.597656 4.675781 0.640625 4.3125 0.640625 C 3.445312 0.640625 2.769531 0.425781 2.28125 0 L -0.125 0 L -0.125 -0.921875 L 1.59375 -0.921875 C 1.488281 -1.148438 1.410156 -1.398438 1.359375 -1.671875 C 1.316406 -1.941406 1.296875 -2.226562 1.296875 -2.53125 L 1.296875 -4.96875 L 1.828125 -5.484375 C 2.140625 -5.566406 2.476562 -5.609375 2.84375 -5.609375 C 3.5625 -5.609375 4.160156 -5.457031 4.640625 -5.15625 L 4.640625 -5.484375 C 5.554688 -5.679688 6.359375 -5.6875 7.046875 -5.5 C 7.742188 -5.3125 8.289062 -4.957031 8.6875 -4.4375 C 9.082031 -3.914062 9.28125 -3.25 9.28125 -2.4375 Z M 4.78125 -0.34375 L 4.78125 -2.4375 C 4.78125 -2.945312 4.675781 -3.375 4.46875 -3.71875 C 4.257812 -4.0625 3.972656 -4.3125 3.609375 -4.46875 C 3.253906 -4.632812 2.84375 -4.6875 2.375 -4.625 L 2.375 -2.53125 C 2.375 -2.03125 2.476562 -1.601562 2.6875 -1.25 C 2.894531 -0.90625 3.179688 -0.65625 3.546875 -0.5 C 3.910156 -0.34375 4.320312 -0.289062 4.78125 -0.34375 Z M 5.859375 -0.921875 L 8.203125 -0.921875 L 8.203125 -2.4375 C 8.203125 -3.207031 7.9375 -3.78125 7.40625 -4.15625 C 6.875 -4.53125 6.148438 -4.679688 5.234375 -4.609375 C 5.429688 -4.359375 5.582031 -4.050781 5.6875 -3.6875 C 5.800781 -3.320312 5.859375 -2.90625 5.859375 -2.4375 Z M 5.859375 -0.921875 "/></g></g></g><g fill="#f9f9f9" fill-opacity="1"><g transform="translate(184.365966, 235.076322)"><g><path d="M -0.125 -0.921875 L 1.03125 -0.921875 L 1.03125 -9.171875 L 2.140625 -9.171875 L 2.140625 -0.921875 C 2.140625 -0.648438 2.050781 -0.425781 1.875 -0.25 C 1.707031 -0.0820312 1.488281 0 1.21875 0 L -0.125 0 Z M -0.125 -0.921875 "/></g></g></g><g fill="#f9f9f9" fill-opacity="1"><g transform="translate(187.160109, 235.076322)"><g/></g></g><g fill="#f9f9f9" fill-opacity="1"><g transform="translate(189.95439, 228.590578)"><g><path d="M -0.734375 -0.984375 L -0.734375 -0.890625 L -1.140625 -0.84375 L -1.140625 -0.984375 C -1.140625 -1.285156 -1.066406 -1.5625 -0.921875 -1.8125 C -0.773438 -2.0625 -0.578125 -2.257812 -0.328125 -2.40625 C -0.0859375 -2.550781 0.1875 -2.625 0.5 -2.625 C 0.664062 -2.625 0.820312 -2.597656 0.96875 -2.546875 C 1.125 -2.503906 1.269531 -2.441406 1.40625 -2.359375 L 1.40625 -1.828125 C 1.289062 -1.953125 1.15625 -2.046875 1 -2.109375 C 0.84375 -2.179688 0.675781 -2.21875 0.5 -2.21875 C 0.144531 -2.21875 -0.144531 -2.097656 -0.375 -1.859375 C -0.613281 -1.628906 -0.734375 -1.335938 -0.734375 -0.984375 Z M 1.4375 -0.84375 L 1.4375 -0.34375 L -1.484375 0 L -1.484375 -0.515625 L -0.3125 -0.65625 L -0.3125 -0.84375 C -0.3125 -1.144531 -0.222656 -1.367188 -0.046875 -1.515625 C 0.128906 -1.660156 0.332031 -1.734375 0.5625 -1.734375 C 0.789062 -1.734375 0.992188 -1.65625 1.171875 -1.5 C 1.347656 -1.351562 1.4375 -1.132812 1.4375 -0.84375 Z M 0.171875 -0.78125 L 0.171875 -0.703125 L 0.96875 -0.796875 C 0.96875 -1.015625 0.898438 -1.160156 0.765625 -1.234375 C 0.628906 -1.304688 0.492188 -1.300781 0.359375 -1.21875 C 0.234375 -1.144531 0.171875 -1 0.171875 -0.78125 Z M 0.171875 -0.78125 "/></g></g></g><g fill="#f9f9f9" fill-opacity="1"><g transform="translate(188.71963, 235.076322)"><g><path d="M 0.375 2.6875 L -0.515625 1.90625 C -0.140625 1.757812 0.15625 1.515625 0.375 1.171875 C 0.59375 0.828125 0.703125 0.390625 0.703125 -0.140625 L 0.703125 -5.609375 L 1.78125 -5.609375 L 1.78125 -0.140625 C 1.78125 0.578125 1.65625 1.171875 1.40625 1.640625 C 1.164062 2.109375 0.820312 2.457031 0.375 2.6875 Z M 0.375 2.6875 "/></g></g></g><g fill="#f9f9f9" fill-opacity="1"><g transform="translate(191.149886, 235.076322)"><g><path d="M 5.65625 -0.921875 L 6.203125 -0.921875 L 6.203125 0 L 5.53125 0 C 5.414062 0.4375 5.21875 0.835938 4.9375 1.203125 C 4.664062 1.578125 4.296875 1.875 3.828125 2.09375 C 3.367188 2.320312 2.816406 2.4375 2.171875 2.4375 C 1.878906 2.4375 1.644531 2.425781 1.46875 2.40625 C 1.300781 2.394531 1.132812 2.378906 0.96875 2.359375 L 0.8125 1.515625 C 0.976562 1.535156 1.148438 1.550781 1.328125 1.5625 C 1.515625 1.582031 1.722656 1.59375 1.953125 1.59375 C 2.660156 1.59375 3.210938 1.4375 3.609375 1.125 C 4.015625 0.8125 4.285156 0.4375 4.421875 0 C 4.367188 0.0078125 4.316406 0.015625 4.265625 0.015625 C 4.210938 0.015625 4.160156 0.015625 4.109375 0.015625 C 3.640625 0.015625 3.1875 -0.0234375 2.75 -0.109375 C 2.320312 -0.191406 1.941406 -0.320312 1.609375 -0.5 C 1.285156 -0.6875 1.035156 -0.9375 0.859375 -1.25 C 0.679688 -1.570312 0.613281 -1.96875 0.65625 -2.4375 L 1.09375 -4.953125 L 1.625 -5.46875 C 2.40625 -5.664062 3.097656 -5.671875 3.703125 -5.484375 C 4.304688 -5.304688 4.78125 -4.953125 5.125 -4.421875 C 5.476562 -3.898438 5.65625 -3.234375 5.65625 -2.421875 Z M 2.171875 -4.609375 L 1.734375 -2.53125 C 1.691406 -2.238281 1.738281 -1.988281 1.875 -1.78125 C 2.019531 -1.582031 2.222656 -1.421875 2.484375 -1.296875 C 2.742188 -1.171875 3.03125 -1.082031 3.34375 -1.03125 C 3.664062 -0.976562 3.976562 -0.953125 4.28125 -0.953125 C 4.332031 -0.953125 4.378906 -0.953125 4.421875 -0.953125 C 4.472656 -0.953125 4.523438 -0.957031 4.578125 -0.96875 L 4.578125 -2.421875 C 4.578125 -3.148438 4.378906 -3.695312 3.984375 -4.0625 C 3.597656 -4.4375 3.09375 -4.625 2.46875 -4.625 C 2.414062 -4.625 2.363281 -4.625 2.3125 -4.625 C 2.269531 -4.625 2.222656 -4.617188 2.171875 -4.609375 Z M 2.171875 -4.609375 "/></g></g></g><g fill="#f9f9f9" fill-opacity="1"><g transform="translate(197.28401, 235.076322)"><g><path d="M 3.5 -7.15625 C 3.5 -6.96875 3.429688 -6.804688 3.296875 -6.671875 C 3.171875 -6.546875 3.015625 -6.484375 2.828125 -6.484375 C 2.628906 -6.484375 2.460938 -6.546875 2.328125 -6.671875 C 2.203125 -6.804688 2.140625 -6.96875 2.140625 -7.15625 C 2.140625 -7.351562 2.203125 -7.515625 2.328125 -7.640625 C 2.460938 -7.773438 2.628906 -7.84375 2.828125 -7.84375 C 3.015625 -7.84375 3.171875 -7.773438 3.296875 -7.640625 C 3.429688 -7.515625 3.5 -7.351562 3.5 -7.15625 Z M 3.375 -5.609375 L 3.390625 -0.9375 C 3.390625 -0.664062 3.300781 -0.441406 3.125 -0.265625 C 2.945312 -0.0859375 2.722656 0 2.453125 0 L -0.125 0 L -0.125 -0.921875 L 2.3125 -0.921875 L 2.296875 -5.609375 Z M 3.375 -5.609375 "/></g></g></g><g fill="#f9f9f9" fill-opacity="1"><g transform="translate(201.325777, 235.076322)"><g/></g></g><g fill="#f9f9f9" fill-opacity="1"><g transform="translate(202.885297, 235.076322)"><g><path d="M 1.859375 -0.59375 C 1.859375 -0.40625 1.789062 -0.242188 1.65625 -0.109375 C 1.53125 0.015625 1.375 0.078125 1.1875 0.078125 C 0.988281 0.078125 0.820312 0.015625 0.6875 -0.109375 C 0.5625 -0.242188 0.5 -0.40625 0.5 -0.59375 C 0.5 -0.789062 0.5625 -0.953125 0.6875 -1.078125 C 0.820312 -1.210938 0.988281 -1.28125 1.1875 -1.28125 C 1.375 -1.28125 1.53125 -1.210938 1.65625 -1.078125 C 1.789062 -0.953125 1.859375 -0.789062 1.859375 -0.59375 Z M 1.859375 -0.59375 "/></g></g></g><g fill="#f9f9f9" fill-opacity="1"><g transform="translate(205.276563, 235.076322)"><g><path d="M 1.859375 -0.59375 C 1.859375 -0.40625 1.789062 -0.242188 1.65625 -0.109375 C 1.53125 0.015625 1.375 0.078125 1.1875 0.078125 C 0.988281 0.078125 0.820312 0.015625 0.6875 -0.109375 C 0.5625 -0.242188 0.5 -0.40625 0.5 -0.59375 C 0.5 -0.789062 0.5625 -0.953125 0.6875 -1.078125 C 0.820312 -1.210938 0.988281 -1.28125 1.1875 -1.28125 C 1.375 -1.28125 1.53125 -1.210938 1.65625 -1.078125 C 1.789062 -0.953125 1.859375 -0.789062 1.859375 -0.59375 Z M 1.859375 -0.59375 "/></g></g></g><g fill="#f9f9f9" fill-opacity="1"><g transform="translate(207.667829, 235.076322)"><g><path d="M 9.296875 1.53125 L 3.671875 1.65625 C 2.734375 1.664062 1.992188 1.40625 1.453125 0.875 C 0.910156 0.351562 0.644531 -0.441406 0.65625 -1.515625 L 0.65625 -3.953125 L 1.734375 -3.953125 L 1.734375 -1.515625 C 1.722656 -0.785156 1.914062 -0.226562 2.3125 0.15625 C 2.707031 0.550781 3.210938 0.742188 3.828125 0.734375 L 8.65625 0.59375 L 8.65625 -1.015625 L 5.921875 -0.921875 L 5.921875 -1.859375 L 8.78125 -1.9375 C 9.0625 -1.945312 9.289062 -1.863281 9.46875 -1.6875 C 9.65625 -1.507812 9.75 -1.28125 9.75 -1 L 9.75 1.0625 C 9.75 1.195312 9.703125 1.304688 9.609375 1.390625 C 9.523438 1.484375 9.421875 1.53125 9.296875 1.53125 Z M 4.84375 3.328125 C 4.84375 3.515625 4.773438 3.671875 4.640625 3.796875 C 4.515625 3.929688 4.359375 4 4.171875 4 C 3.984375 4 3.820312 3.929688 3.6875 3.796875 C 3.5625 3.671875 3.5 3.515625 3.5 3.328125 C 3.5 3.140625 3.5625 2.976562 3.6875 2.84375 C 3.820312 2.71875 3.984375 2.65625 4.171875 2.65625 C 4.359375 2.65625 4.515625 2.71875 4.640625 2.84375 C 4.773438 2.976562 4.84375 3.140625 4.84375 3.328125 Z M 6.578125 3.328125 C 6.578125 3.515625 6.507812 3.671875 6.375 3.796875 C 6.25 3.929688 6.09375 4 5.90625 4 C 5.707031 4 5.539062 3.929688 5.40625 3.796875 C 5.28125 3.671875 5.21875 3.515625 5.21875 3.328125 C 5.21875 3.140625 5.28125 2.976562 5.40625 2.84375 C 5.539062 2.71875 5.707031 2.65625 5.90625 2.65625 C 6.09375 2.65625 6.25 2.71875 6.375 2.84375 C 6.507812 2.976562 6.578125 3.140625 6.578125 3.328125 Z M 6.578125 3.328125 "/></g></g></g><g fill="#f9f9f9" fill-opacity="1"><g transform="translate(217.414841, 235.076322)"><g><path d="M 2.84375 -5.609375 C 3.78125 -5.609375 4.515625 -5.347656 5.046875 -4.828125 C 5.585938 -4.316406 5.859375 -3.519531 5.859375 -2.4375 L 5.859375 0 L 5.328125 0.515625 C 5.015625 0.597656 4.675781 0.640625 4.3125 0.640625 C 3.445312 0.640625 2.769531 0.425781 2.28125 0 L -0.125 0 L -0.125 -0.921875 L 1.59375 -0.921875 C 1.488281 -1.148438 1.410156 -1.398438 1.359375 -1.671875 C 1.316406 -1.941406 1.296875 -2.226562 1.296875 -2.53125 L 1.296875 -4.96875 L 1.828125 -5.484375 C 2.140625 -5.566406 2.476562 -5.609375 2.84375 -5.609375 Z M 4.78125 -0.34375 L 4.78125 -2.4375 C 4.78125 -2.945312 4.675781 -3.375 4.46875 -3.71875 C 4.257812 -4.0625 3.972656 -4.3125 3.609375 -4.46875 C 3.253906 -4.632812 2.84375 -4.6875 2.375 -4.625 L 2.375 -2.53125 C 2.375 -2.03125 2.476562 -1.601562 2.6875 -1.25 C 2.894531 -0.90625 3.179688 -0.65625 3.546875 -0.5 C 3.910156 -0.34375 4.320312 -0.289062 4.78125 -0.34375 Z M 4.78125 -0.34375 "/></g></g></g><g fill="#f9f9f9" fill-opacity="1"><g transform="translate(223.925842, 235.076322)"><g><path d="M 7.1875 -9.171875 L 7.1875 -0.921875 L 7.96875 -0.921875 L 7.96875 0 L 0.1875 0 L 0.125 -0.921875 L 6.09375 -0.921875 L 6.09375 -9.171875 Z M 3.15625 -8.234375 L 3.828125 -1.8125 L 2.75 -1.8125 L 2.0625 -8.234375 Z M 3.15625 -8.234375 "/></g></g></g><g fill="#f9f9f9" fill-opacity="1"><g transform="translate(231.762436, 235.076322)"><g><path d="M 6.921875 -5.609375 L 7.171875 -2.71875 C 7.242188 -2 7.15625 -1.441406 6.90625 -1.046875 C 6.65625 -0.648438 6.289062 -0.375 5.8125 -0.21875 C 5.332031 -0.0703125 4.78125 0 4.15625 0 L -0.125 0 L -0.125 -0.921875 L 1.03125 -0.921875 L 0.796875 -4.671875 L 1.890625 -4.671875 L 2.125 -0.921875 L 3.5625 -0.921875 L 3.328125 -5.09375 L 4.421875 -5.09375 L 4.65625 -1 C 5.113281 -1.0625 5.476562 -1.210938 5.75 -1.453125 C 6.03125 -1.703125 6.144531 -2.125 6.09375 -2.71875 L 5.84375 -5.609375 Z M 6.921875 -5.609375 "/></g></g></g><g fill="#f9f9f9" fill-opacity="1"><g transform="translate(239.599029, 235.076322)"><g><path d="M 1.78125 0 L 0.65625 0 L 0.65625 -9.171875 L 1.78125 -9.171875 Z M 2.15625 2.453125 L 2.359375 2.453125 L 2.359375 3.109375 L 0.078125 3.109375 L 0.078125 2.453125 L 0.765625 2.453125 C 0.492188 2.335938 0.359375 2.148438 0.359375 1.890625 L 0.359375 1.65625 C 0.359375 1.445312 0.421875 1.269531 0.546875 1.125 C 0.679688 0.988281 0.84375 0.890625 1.03125 0.828125 C 1.226562 0.765625 1.425781 0.742188 1.625 0.765625 C 1.832031 0.796875 2.003906 0.863281 2.140625 0.96875 L 2.140625 1.546875 C 1.847656 1.378906 1.609375 1.332031 1.421875 1.40625 C 1.242188 1.476562 1.15625 1.578125 1.15625 1.703125 L 1.15625 1.84375 C 1.15625 2.0625 1.210938 2.21875 1.328125 2.3125 C 1.453125 2.40625 1.726562 2.453125 2.15625 2.453125 Z M 2.15625 2.453125 "/></g></g></g></svg>